# xmcd CD database file
#
# Track frame offsets:
#	150
#	14904
#	29212
#	45522
#	57640
#	71694
#	86324
#	100638
#	115796
#	130774
#
# Disc length: 1951 seconds
#
# Revision: 0
# Processed by: cddbd v1.5.1PL2 Copyright (c) Steve Scherf et al.
# Submitted via: CDex 1.51
#
DISCID=88079d0a
DTITLE=Jay Ferguson - White Noise
DYEAR=1982
DGENRE=Rock
TTITLE0=White Noise
TTITLE1=I'm Down
TTITLE2=I Come Alive
TTITLE3=Inside Out
TTITLE4=Empty Sky
TTITLE5=Tonite (Fallin' For Ya)
TTITLE6=Baby Come Back
TTITLE7=The Heat Of The Night
TTITLE8=Million $
TTITLE9=She's Mine Tonight
EXTD=YEAR: 1982
EXTT0=
EXTT1=
EXTT2=
EXTT3=
EXTT4=
EXTT5=
EXTT6=
EXTT7=
EXTT8=
EXTT9=
PLAYORDER=
